HIERARCHY
ROOT Hips
{
	OFFSET -0.001795 -0.223333 0.028219
	CHANNELS 6 Xposition Yposition Zposition Zrotation Yrotation Xrotation 
	JOINT LeftUpLeg
	{
		OFFSET 0.069520 -0.091406 -0.006815
		CHANNELS 3 Zrotation Yrotation Xrotation
		JOINT LeftLeg
		{
			OFFSET 0.034277 -0.375199 -0.004496
			CHANNELS 3 Zrotation Yrotation Xrotation
			JOINT LeftFoot
			{
				OFFSET -0.013596 -0.397961 -0.043693
				CHANNELS 3 Zrotation Yrotation Xrotation
				JOINT LeftToe
				{
					OFFSET 0.026358 -0.055791 0.119288
					CHANNELS 3 Zrotation Yrotation Xrotation
					End Site
					{
						OFFSET 0.000000 0.000000 0.000000
					}
				}
			}
		}
	}
	JOINT RightUpLeg
	{
		OFFSET -0.067670 -0.090522 -0.004320
		CHANNELS 3 Zrotation Yrotation Xrotation
		JOINT RightLeg
		{
			OFFSET -0.038290 -0.382569 -0.008850
			CHANNELS 3 Zrotation Yrotation Xrotation
			JOINT RightFoot
			{
				OFFSET 0.015774 -0.398415 -0.042312
				CHANNELS 3 Zrotation Yrotation Xrotation
				JOINT RightToe
				{
					OFFSET -0.025372 -0.048144 0.123348
					CHANNELS 3 Zrotation Yrotation Xrotation
					End Site
					{
						OFFSET 0.000000 0.000000 0.000000
					}
				}
			}
		}
	}
	JOINT Spine
	{
		OFFSET -0.002533 0.108963 -0.026696
		CHANNELS 3 Zrotation Yrotation Xrotation
		JOINT Spine1
		{
			OFFSET 0.005487 0.135180 0.001092
			CHANNELS 3 Zrotation Yrotation Xrotation
			JOINT Spine2
			{
				OFFSET 0.001457 0.052922 0.025425
				CHANNELS 3 Zrotation Yrotation Xrotation
				JOINT Neck
				{
					OFFSET -0.002778 0.213870 -0.042857
					CHANNELS 3 Zrotation Yrotation Xrotation
					JOINT Head
					{
						OFFSET 0.005152 0.064970 0.051349
						CHANNELS 3 Zrotation Yrotation Xrotation
						End Site
						{
							OFFSET 0.000000 0.000000 0.000000
						}
					}
				}
				JOINT LeftShoulder
				{
					OFFSET 0.078845 0.121749 -0.034090
					CHANNELS 3 Zrotation Yrotation Xrotation
					JOINT LeftArm
					{
						OFFSET 0.090977 0.030469 -0.008868
						CHANNELS 3 Zrotation Yrotation Xrotation
						JOINT LeftForeArm
						{
							OFFSET 0.259612 -0.012772 -0.027456
							CHANNELS 3 Zrotation Yrotation Xrotation
							JOINT LeftHand
							{
								OFFSET 0.249234 0.008986 -0.001171
								CHANNELS 3 Zrotation Yrotation Xrotation
								End Site
								{
									OFFSET 0.000000 0.000000 0.000000
								}
							}
						}
					}
				}
				JOINT RightShoulder
				{
					OFFSET -0.081759 0.118833 -0.038615
					CHANNELS 3 Zrotation Yrotation Xrotation
					JOINT RightArm
					{
						OFFSET -0.096012 0.032551 -0.009143
						CHANNELS 3 Zrotation Yrotation Xrotation
						JOINT RightForeArm
						{
							OFFSET -0.253742 -0.013329 -0.021401
							CHANNELS 3 Zrotation Yrotation Xrotation
							JOINT RightHand
							{
								OFFSET -0.255298 0.007772 -0.005559
								CHANNELS 3 Zrotation Yrotation Xrotation
								End Site
								{
									OFFSET 0.000000 0.000000 0.000000
								}
							}
						}
					}
				}
			}
		}
	}
}
MOTION
Frames: 7
Frame Time: 0.050000
0.002136 0.958045 -0.038256 0.203407 -9.359274 -0.528369 5.879846 0.658445 10.488195 -2.910239 0.496981 -9.124063 4.233388 11.487632 19.162050 0.000000 0.000000 0.000000 -6.893298 0.155550 6.439825 4.930799 -0.354588 -6.612672 -1.058607 -9.853563 17.665889 0.000000 0.000000 0.000000 8.188507 -0.100777 0.818035 -6.375603 2.104385 -20.381804 -0.435423 9.466962 33.043659 9.952288 -4.718096 -20.800214 0.000000 0.000000 0.000000 -14.861828 -3.508384 0.513252 -61.189319 -13.691271 -3.452800 -161.094843 -81.441889 166.900211 0.000000 0.000000 0.000000 22.303340 -7.438005 -4.609219 65.219158 12.153629 -2.787741 125.175458 76.471154 125.208507 0.000000 0.000000 0.000000 
0.001939 0.958705 -0.039534 0.024592 -9.838606 -0.335177 5.935271 0.661344 10.422899 -2.755134 0.488103 -8.912490 4.587725 11.949199 19.317966 0.000000 0.000000 0.000000 -6.748310 0.150681 6.680254 5.196138 -0.343200 -7.097830 -1.064854 -10.014895 18.009265 0.000000 0.000000 0.000000 8.442728 -0.044129 0.307471 -6.173154 2.035919 -20.363203 -0.061398 10.042233 33.269067 10.695637 -5.228356 -20.547225 0.000000 0.000000 0.000000 -13.837552 -3.024091 0.290507 -61.818308 -13.709921 -3.488378 -166.229307 -75.932857 171.903429 0.000000 0.000000 0.000000 22.269396 -8.016664 -4.883616 65.481118 11.873622 -2.927957 135.911871 71.574503 134.328877 0.000000 0.000000 0.000000 
0.001861 0.959349 -0.040821 0.098255 -10.235892 -0.063847 5.752081 0.682981 10.414700 -2.722317 0.494351 -9.101307 4.660746 12.009771 19.460472 0.000000 0.000000 0.000000 -7.060523 0.203646 6.633101 5.420522 -0.332635 -7.379349 -0.889232 -9.837683 18.196946 0.000000 0.000000 0.000000 8.779968 -0.001141 -0.086755 -6.427353 2.095207 -20.557631 0.040355 10.477574 33.365639 11.177361 -5.490873 -20.749190 0.000000 0.000000 0.000000 -13.089205 -3.113493 0.358085 -62.003170 -13.814123 -3.460095 -169.520045 -72.986668 175.746685 0.000000 0.000000 0.000000 22.121739 -8.390032 -5.054036 65.947540 11.783013 -2.944952 138.974969 68.198960 135.752348 0.000000 0.000000 0.000000 
0.001800 0.959758 -0.042206 0.047955 -10.565077 0.292760 5.777043 0.679626 10.322320 -2.519940 0.491384 -9.281849 4.662209 11.979994 19.648618 0.000000 0.000000 0.000000 -7.101149 0.225079 6.533141 5.600430 -0.318889 -7.738531 -0.973063 -10.027405 18.264970 0.000000 0.000000 0.000000 9.106573 0.044762 -0.500510 -6.486896 2.099126 -20.775769 0.132419 10.827609 33.321384 11.907172 -5.996099 -20.596703 0.000000 0.000000 0.000000 -12.350334 -2.731244 0.202072 -62.819089 -13.003906 -3.918546 -168.016725 -69.712905 173.176328 0.000000 0.000000 0.000000 22.012720 -8.824927 -5.283779 65.862931 11.575962 -3.028821 139.120179 65.472050 133.635503 0.000000 0.000000 0.000000 
0.001827 0.960165 -0.043770 0.015370 -10.540136 0.354120 5.603813 0.680450 10.181226 -2.231180 0.472712 -9.164320 4.809890 12.186437 19.631206 0.000000 0.000000 0.000000 -6.821935 0.192560 6.555657 5.436715 -0.318560 -7.720783 -1.014633 -10.078815 18.213095 0.000000 0.000000 0.000000 9.217968 0.075967 -0.751503 -6.391558 2.069560 -20.851873 0.324547 11.017394 33.287453 12.255638 -6.257370 -20.356616 0.000000 0.000000 0.000000 -12.231772 -2.893181 0.250968 -62.604619 -12.420660 -4.241186 -167.114760 -68.183324 171.388013 0.000000 0.000000 0.000000 21.914577 -8.786424 -5.200163 65.303801 11.611813 -3.010389 140.255697 64.521821 134.444791 0.000000 0.000000 0.000000 
0.001888 0.960307 -0.045370 -0.122240 -10.530937 0.591485 5.583170 0.655215 9.865792 -2.053736 0.452934 -8.830550 4.903373 12.293684 19.420785 0.000000 0.000000 0.000000 -6.525746 0.160743 6.565486 5.416319 -0.315847 -7.822229 -0.907116 -9.883724 18.129676 0.000000 0.000000 0.000000 9.471741 0.118030 -1.098302 -6.431002 2.073827 -21.067397 0.511948 11.196515 33.652063 12.962193 -6.736357 -20.357431 0.000000 0.000000 0.000000 -12.121471 -2.757831 0.172525 -62.954240 -11.226659 -4.950012 -161.658066 -66.059260 162.595558 0.000000 0.000000 0.000000 21.968102 -9.195060 -5.402772 64.684184 11.159750 -3.307634 138.483519 63.045057 130.640731 0.000000 0.000000 0.000000 
0.001942 0.960400 -0.047021 -0.056695 -10.670125 0.709229 5.427108 0.661720 9.771602 -2.061925 0.449823 -8.678505 4.993785 12.402204 19.428180 0.000000 0.000000 0.000000 -6.709164 0.187409 6.626430 5.603696 -0.306856 -8.100533 -0.909439 -9.926067 18.220343 0.000000 0.000000 0.000000 9.851564 0.129137 -1.152556 -6.709385 2.144153 -21.279137 0.574528 11.630271 33.913634 13.297480 -6.875728 -20.560611 0.000000 0.000000 0.000000 -12.087678 -3.065679 0.267426 -62.545078 -10.237095 -5.505888 -159.205322 -65.049499 158.168126 0.000000 0.000000 0.000000 22.085544 -9.410831 -5.453785 64.049669 11.095986 -3.380860 137.387466 62.087136 128.345392 0.000000 0.000000 0.000000 
